<svg width="20" height="20" viewBox="0 0 20 20" xmlns="http://www.w3.org/2000/svg">
<path d="M13.3335 9.65308C14.7168 9.65308 15.8252 8.53641 15.8252 7.15308C15.8252 5.76974 14.7168 4.65308 13.3335 4.65308C11.9502 4.65308 10.8335 5.76974 10.8335 7.15308C10.8335 8.53641 11.9502 9.65308 13.3335 9.65308ZM6.66683 9.65308C8.05016 9.65308 9.15849 8.53641 9.15849 7.15308C9.15849 5.76974 8.05016 4.65308 6.66683 4.65308C5.2835 4.65308 4.16683 5.76974 4.16683 7.15308C4.16683 8.53641 5.2835 9.65308 6.66683 9.65308ZM6.66683 11.3197C4.72516 11.3197 0.833496 12.2947 0.833496 14.2364V15.4864C0.833496 15.9447 1.2085 16.3197 1.66683 16.3197H11.6668C12.1252 16.3197 12.5002 15.9447 12.5002 15.4864V14.2364C12.5002 12.2947 8.6085 11.3197 6.66683 11.3197ZM13.3335 11.3197C13.0918 11.3197 12.8168 11.3364 12.5252 11.3614C12.5418 11.3697 12.5502 11.3864 12.5585 11.3947C13.5085 12.0864 14.1668 13.0114 14.1668 14.2364V15.4864C14.1668 15.7781 14.1085 16.0614 14.0168 16.3197H18.3335C18.7918 16.3197 19.1668 15.9447 19.1668 15.4864V14.2364C19.1668 12.2947 15.2752 11.3197 13.3335 11.3197Z"/>
</svg>
