<svg width="82" height="82" viewBox="0 0 82 82" fill="none" xmlns="http://www.w3.org/2000/svg">
<path d="M76.8113 40.7432C79.2554 40.7432 81.2622 38.7557 80.9908 36.3267C80.3908 30.9574 78.7009 25.7485 76.0064 21.0218C72.5781 15.0077 67.6405 9.97954 61.6751 6.42758C55.7097 2.87563 48.9202 0.921154 41.9687 0.754755C35.0171 0.588356 28.1409 2.21571 22.0105 5.47813C15.88 8.74054 10.7047 13.5267 6.98917 19.3697C3.27363 25.2128 1.14473 31.9134 0.810058 38.818C0.475387 45.7226 1.94638 52.5956 5.07957 58.7668C7.55096 63.6344 10.99 67.9343 15.1722 71.4148C17.036 72.9658 19.7783 72.4028 21.1284 70.3886C22.489 68.3589 21.913 65.6308 20.0862 64.0079C17.1694 61.4165 14.7555 58.2969 12.9811 54.802C10.5372 49.9884 9.38976 44.6273 9.65082 39.2415C9.91187 33.8557 11.5725 28.6291 14.4707 24.0713C17.3689 19.5136 21.4058 15.7803 26.1877 13.2355C30.9696 10.6907 36.3332 9.42136 41.7556 9.55116C47.178 9.68095 52.474 11.2055 57.1271 13.9761C61.7803 16.7467 65.6318 20.6688 68.3059 25.36C70.2458 28.7629 71.5181 32.4862 72.0706 36.3326C72.4181 38.7519 74.3671 40.7432 76.8113 40.7432Z" fill="url(#paint0_linear_2056_42697)"/>
<defs>
<linearGradient id="paint0_linear_2056_42697" x1="81.2368" y1="32.1125" x2="48.1892" y2="80.7432" gradientUnits="userSpaceOnUse">
<stop stop-color="white"/>
<stop offset="1" stop-color="white" stop-opacity="0"/>
</linearGradient>
</defs>
</svg>
